<mxfile host="app.diagrams.net" modified="2024-04-28T18:11:05.976Z" agent="Mozilla/5.0 (Windows NT 10.0; Win64; x64) AppleWebKit/537.36 (KHTML, like Gecko) Chrome/124.0.0.0 Safari/537.36" etag="_78JbE6MXLOoiTQ3__b3" version="24.3.1" type="github">
  <diagram name="第 1 页" id="ZpCvt9i-UeeF5TeZm3TA">
    <mxGraphModel dx="2474" dy="840" grid="0" gridSize="10" guides="0" tooltips="1" connect="1" arrows="1" fold="1" page="0" pageScale="1" pageWidth="827" pageHeight="1169" math="0" shadow="0">
      <root>
        <mxCell id="0" />
        <mxCell id="1" parent="0" />
        <mxCell id="Sj0rUmfyhhppE49UudTE-6" style="edgeStyle=orthogonalEdgeStyle;rounded=0;orthogonalLoop=1;jettySize=auto;html=1;exitX=1;exitY=0.5;exitDx=0;exitDy=0;entryX=0;entryY=0.5;entryDx=0;entryDy=0;" parent="1" source="qwCqjYxXJUJMJ7RCVG0b-1" target="qwCqjYxXJUJMJ7RCVG0b-2" edge="1">
          <mxGeometry relative="1" as="geometry" />
        </mxCell>
        <mxCell id="qwCqjYxXJUJMJ7RCVG0b-1" value="应用程序" style="rounded=1;whiteSpace=wrap;html=1;" parent="1" vertex="1">
          <mxGeometry x="-78" y="682" width="120" height="60" as="geometry" />
        </mxCell>
        <mxCell id="Sj0rUmfyhhppE49UudTE-7" style="edgeStyle=orthogonalEdgeStyle;rounded=0;orthogonalLoop=1;jettySize=auto;html=1;exitX=1;exitY=0.5;exitDx=0;exitDy=0;" parent="1" source="qwCqjYxXJUJMJ7RCVG0b-2" target="Sj0rUmfyhhppE49UudTE-1" edge="1">
          <mxGeometry relative="1" as="geometry" />
        </mxCell>
        <mxCell id="qwCqjYxXJUJMJ7RCVG0b-2" value="操作系统" style="rounded=1;whiteSpace=wrap;html=1;" parent="1" vertex="1">
          <mxGeometry x="142" y="682" width="120" height="60" as="geometry" />
        </mxCell>
        <mxCell id="Sj0rUmfyhhppE49UudTE-16" value="" style="edgeStyle=orthogonalEdgeStyle;rounded=0;orthogonalLoop=1;jettySize=auto;html=1;" parent="1" source="Sj0rUmfyhhppE49UudTE-1" target="Sj0rUmfyhhppE49UudTE-15" edge="1">
          <mxGeometry relative="1" as="geometry" />
        </mxCell>
        <mxCell id="Sj0rUmfyhhppE49UudTE-1" value="网卡驱动" style="rounded=1;whiteSpace=wrap;html=1;" parent="1" vertex="1">
          <mxGeometry x="356" y="682" width="120" height="60" as="geometry" />
        </mxCell>
        <mxCell id="Sj0rUmfyhhppE49UudTE-9" value="" style="edgeStyle=orthogonalEdgeStyle;rounded=0;orthogonalLoop=1;jettySize=auto;html=1;" parent="1" source="Sj0rUmfyhhppE49UudTE-2" target="Sj0rUmfyhhppE49UudTE-3" edge="1">
          <mxGeometry relative="1" as="geometry" />
        </mxCell>
        <mxCell id="Sj0rUmfyhhppE49UudTE-2" value="互联网" style="ellipse;shape=cloud;whiteSpace=wrap;html=1;" parent="1" vertex="1">
          <mxGeometry x="1268" y="670" width="120" height="80" as="geometry" />
        </mxCell>
        <mxCell id="Sj0rUmfyhhppE49UudTE-10" value="" style="edgeStyle=orthogonalEdgeStyle;rounded=0;orthogonalLoop=1;jettySize=auto;html=1;" parent="1" source="Sj0rUmfyhhppE49UudTE-3" target="Sj0rUmfyhhppE49UudTE-4" edge="1">
          <mxGeometry relative="1" as="geometry" />
        </mxCell>
        <mxCell id="Sj0rUmfyhhppE49UudTE-3" value="路由器" style="rounded=1;whiteSpace=wrap;html=1;" parent="1" vertex="1">
          <mxGeometry x="1448" y="680" width="120" height="60" as="geometry" />
        </mxCell>
        <mxCell id="Sj0rUmfyhhppE49UudTE-11" value="" style="edgeStyle=orthogonalEdgeStyle;rounded=0;orthogonalLoop=1;jettySize=auto;html=1;" parent="1" source="Sj0rUmfyhhppE49UudTE-4" target="Sj0rUmfyhhppE49UudTE-5" edge="1">
          <mxGeometry relative="1" as="geometry" />
        </mxCell>
        <mxCell id="Sj0rUmfyhhppE49UudTE-4" value="交换机" style="rounded=1;whiteSpace=wrap;html=1;" parent="1" vertex="1">
          <mxGeometry x="1631" y="680" width="120" height="60" as="geometry" />
        </mxCell>
        <mxCell id="Sj0rUmfyhhppE49UudTE-5" value="电脑/服务器" style="rounded=1;whiteSpace=wrap;html=1;" parent="1" vertex="1">
          <mxGeometry x="1826" y="680" width="120" height="60" as="geometry" />
        </mxCell>
        <mxCell id="Sj0rUmfyhhppE49UudTE-73" style="edgeStyle=orthogonalEdgeStyle;rounded=0;orthogonalLoop=1;jettySize=auto;html=1;exitX=1;exitY=0.5;exitDx=0;exitDy=0;fontFamily=Helvetica;fontSize=12;fontColor=default;fontStyle=0;" parent="1" source="Sj0rUmfyhhppE49UudTE-15" edge="1">
          <mxGeometry relative="1" as="geometry">
            <mxPoint x="824" y="712" as="targetPoint" />
          </mxGeometry>
        </mxCell>
        <mxCell id="Sj0rUmfyhhppE49UudTE-15" value="网卡" style="rounded=1;whiteSpace=wrap;html=1;" parent="1" vertex="1">
          <mxGeometry x="592" y="682" width="120" height="60" as="geometry" />
        </mxCell>
        <mxCell id="Sj0rUmfyhhppE49UudTE-51" value="报文组成" style="swimlane;fontStyle=0;childLayout=stackLayout;horizontal=1;startSize=26;fillColor=none;horizontalStack=0;resizeParent=1;resizeParentMax=0;resizeLast=0;collapsible=1;marginBottom=0;html=1;align=center;flipH=1;flipV=0;direction=east;rotation=0;" parent="1" vertex="1">
          <mxGeometry x="-81" y="596" width="125" height="78" as="geometry">
            <mxRectangle x="-296" y="407" width="54" height="26" as="alternateBounds" />
          </mxGeometry>
        </mxCell>
        <mxCell id="Sj0rUmfyhhppE49UudTE-53" value="HTTP头" style="text;strokeColor=none;fillColor=none;align=left;verticalAlign=top;spacingLeft=4;spacingRight=4;overflow=hidden;rotatable=0;points=[[0,0.5],[1,0.5]];portConstraint=eastwest;whiteSpace=wrap;html=1;rotation=0;" parent="Sj0rUmfyhhppE49UudTE-51" vertex="1">
          <mxGeometry y="26" width="125" height="26" as="geometry" />
        </mxCell>
        <mxCell id="Sj0rUmfyhhppE49UudTE-52" value="数据包" style="text;strokeColor=none;fillColor=none;align=left;verticalAlign=top;spacingLeft=4;spacingRight=4;overflow=hidden;rotatable=0;points=[[0,0.5],[1,0.5]];portConstraint=eastwest;whiteSpace=wrap;html=1;rotation=0;" parent="Sj0rUmfyhhppE49UudTE-51" vertex="1">
          <mxGeometry y="52" width="125" height="26" as="geometry" />
        </mxCell>
        <mxCell id="Sj0rUmfyhhppE49UudTE-66" value="报文组成" style="swimlane;fontStyle=0;childLayout=stackLayout;horizontal=1;startSize=26;fillColor=none;horizontalStack=0;resizeParent=1;resizeParentMax=0;resizeLast=0;collapsible=1;marginBottom=0;html=1;align=center;flipH=1;flipV=0;direction=east;rotation=0;" parent="1" vertex="1">
          <mxGeometry x="138" y="519" width="125" height="156" as="geometry">
            <mxRectangle x="-296" y="407" width="54" height="26" as="alternateBounds" />
          </mxGeometry>
        </mxCell>
        <mxCell id="Sj0rUmfyhhppE49UudTE-71" value="MAC头" style="text;strokeColor=none;fillColor=none;align=left;verticalAlign=top;spacingLeft=4;spacingRight=4;overflow=hidden;rotatable=0;points=[[0,0.5],[1,0.5]];portConstraint=eastwest;whiteSpace=wrap;html=1;rotation=0;" parent="Sj0rUmfyhhppE49UudTE-66" vertex="1">
          <mxGeometry y="26" width="125" height="26" as="geometry" />
        </mxCell>
        <mxCell id="Sj0rUmfyhhppE49UudTE-67" value="IP头" style="text;strokeColor=none;fillColor=none;align=left;verticalAlign=top;spacingLeft=4;spacingRight=4;overflow=hidden;rotatable=0;points=[[0,0.5],[1,0.5]];portConstraint=eastwest;whiteSpace=wrap;html=1;rotation=0;" parent="Sj0rUmfyhhppE49UudTE-66" vertex="1">
          <mxGeometry y="52" width="125" height="26" as="geometry" />
        </mxCell>
        <mxCell id="Sj0rUmfyhhppE49UudTE-68" value="TCP头" style="text;strokeColor=none;fillColor=none;align=left;verticalAlign=top;spacingLeft=4;spacingRight=4;overflow=hidden;rotatable=0;points=[[0,0.5],[1,0.5]];portConstraint=eastwest;whiteSpace=wrap;html=1;rotation=0;" parent="Sj0rUmfyhhppE49UudTE-66" vertex="1">
          <mxGeometry y="78" width="125" height="26" as="geometry" />
        </mxCell>
        <mxCell id="Sj0rUmfyhhppE49UudTE-69" value="HTTP头" style="text;strokeColor=none;fillColor=none;align=left;verticalAlign=top;spacingLeft=4;spacingRight=4;overflow=hidden;rotatable=0;points=[[0,0.5],[1,0.5]];portConstraint=eastwest;whiteSpace=wrap;html=1;rotation=0;" parent="Sj0rUmfyhhppE49UudTE-66" vertex="1">
          <mxGeometry y="104" width="125" height="26" as="geometry" />
        </mxCell>
        <mxCell id="Sj0rUmfyhhppE49UudTE-70" value="数据包" style="text;strokeColor=none;fillColor=none;align=left;verticalAlign=top;spacingLeft=4;spacingRight=4;overflow=hidden;rotatable=0;points=[[0,0.5],[1,0.5]];portConstraint=eastwest;whiteSpace=wrap;html=1;rotation=0;" parent="Sj0rUmfyhhppE49UudTE-66" vertex="1">
          <mxGeometry y="130" width="125" height="26" as="geometry" />
        </mxCell>
        <mxCell id="Sj0rUmfyhhppE49UudTE-74" value="报文组成" style="swimlane;fontStyle=0;childLayout=stackLayout;horizontal=1;startSize=26;fillColor=none;horizontalStack=0;resizeParent=1;resizeParentMax=0;resizeLast=0;collapsible=1;marginBottom=0;html=1;align=center;flipH=1;flipV=0;direction=east;rotation=0;" parent="1" vertex="1">
          <mxGeometry x="352" y="464" width="125" height="208" as="geometry">
            <mxRectangle x="-296" y="407" width="54" height="26" as="alternateBounds" />
          </mxGeometry>
        </mxCell>
        <mxCell id="Sj0rUmfyhhppE49UudTE-80" value="报头和起始帧分界符" style="text;strokeColor=none;fillColor=none;align=left;verticalAlign=top;spacingLeft=4;spacingRight=4;overflow=hidden;rotatable=0;points=[[0,0.5],[1,0.5]];portConstraint=eastwest;whiteSpace=wrap;html=1;rotation=0;" parent="Sj0rUmfyhhppE49UudTE-74" vertex="1">
          <mxGeometry y="26" width="125" height="26" as="geometry" />
        </mxCell>
        <mxCell id="Sj0rUmfyhhppE49UudTE-75" value="MAC头" style="text;strokeColor=none;fillColor=none;align=left;verticalAlign=top;spacingLeft=4;spacingRight=4;overflow=hidden;rotatable=0;points=[[0,0.5],[1,0.5]];portConstraint=eastwest;whiteSpace=wrap;html=1;rotation=0;" parent="Sj0rUmfyhhppE49UudTE-74" vertex="1">
          <mxGeometry y="52" width="125" height="26" as="geometry" />
        </mxCell>
        <mxCell id="Sj0rUmfyhhppE49UudTE-76" value="IP头" style="text;strokeColor=none;fillColor=none;align=left;verticalAlign=top;spacingLeft=4;spacingRight=4;overflow=hidden;rotatable=0;points=[[0,0.5],[1,0.5]];portConstraint=eastwest;whiteSpace=wrap;html=1;rotation=0;" parent="Sj0rUmfyhhppE49UudTE-74" vertex="1">
          <mxGeometry y="78" width="125" height="26" as="geometry" />
        </mxCell>
        <mxCell id="Sj0rUmfyhhppE49UudTE-77" value="TCP头" style="text;strokeColor=none;fillColor=none;align=left;verticalAlign=top;spacingLeft=4;spacingRight=4;overflow=hidden;rotatable=0;points=[[0,0.5],[1,0.5]];portConstraint=eastwest;whiteSpace=wrap;html=1;rotation=0;" parent="Sj0rUmfyhhppE49UudTE-74" vertex="1">
          <mxGeometry y="104" width="125" height="26" as="geometry" />
        </mxCell>
        <mxCell id="Sj0rUmfyhhppE49UudTE-78" value="HTTP头" style="text;strokeColor=none;fillColor=none;align=left;verticalAlign=top;spacingLeft=4;spacingRight=4;overflow=hidden;rotatable=0;points=[[0,0.5],[1,0.5]];portConstraint=eastwest;whiteSpace=wrap;html=1;rotation=0;" parent="Sj0rUmfyhhppE49UudTE-74" vertex="1">
          <mxGeometry y="130" width="125" height="26" as="geometry" />
        </mxCell>
        <mxCell id="Sj0rUmfyhhppE49UudTE-79" value="数据包" style="text;strokeColor=none;fillColor=none;align=left;verticalAlign=top;spacingLeft=4;spacingRight=4;overflow=hidden;rotatable=0;points=[[0,0.5],[1,0.5]];portConstraint=eastwest;whiteSpace=wrap;html=1;rotation=0;" parent="Sj0rUmfyhhppE49UudTE-74" vertex="1">
          <mxGeometry y="156" width="125" height="26" as="geometry" />
        </mxCell>
        <mxCell id="Sj0rUmfyhhppE49UudTE-81" value="FCS" style="text;strokeColor=none;fillColor=none;align=left;verticalAlign=top;spacingLeft=4;spacingRight=4;overflow=hidden;rotatable=0;points=[[0,0.5],[1,0.5]];portConstraint=eastwest;whiteSpace=wrap;html=1;rotation=0;" parent="Sj0rUmfyhhppE49UudTE-74" vertex="1">
          <mxGeometry y="182" width="125" height="26" as="geometry" />
        </mxCell>
        <mxCell id="Cvu1rwZGdJvvCHTYWkSP-25" style="edgeStyle=orthogonalEdgeStyle;rounded=0;orthogonalLoop=1;jettySize=auto;html=1;exitX=1;exitY=0.5;exitDx=0;exitDy=0;" edge="1" parent="1" source="Cvu1rwZGdJvvCHTYWkSP-2" target="Sj0rUmfyhhppE49UudTE-2">
          <mxGeometry relative="1" as="geometry" />
        </mxCell>
        <mxCell id="Cvu1rwZGdJvvCHTYWkSP-2" value="路由器" style="rounded=1;whiteSpace=wrap;html=1;" vertex="1" parent="1">
          <mxGeometry x="1056" y="680" width="120" height="60" as="geometry" />
        </mxCell>
        <mxCell id="Cvu1rwZGdJvvCHTYWkSP-14" style="edgeStyle=orthogonalEdgeStyle;rounded=0;orthogonalLoop=1;jettySize=auto;html=1;entryX=0;entryY=0.5;entryDx=0;entryDy=0;" edge="1" parent="1" source="Cvu1rwZGdJvvCHTYWkSP-3" target="Cvu1rwZGdJvvCHTYWkSP-2">
          <mxGeometry relative="1" as="geometry" />
        </mxCell>
        <mxCell id="Cvu1rwZGdJvvCHTYWkSP-3" value="交换机" style="rounded=1;whiteSpace=wrap;html=1;" vertex="1" parent="1">
          <mxGeometry x="826" y="680" width="120" height="60" as="geometry" />
        </mxCell>
        <mxCell id="Cvu1rwZGdJvvCHTYWkSP-4" value="电信号" style="text;html=1;align=center;verticalAlign=middle;resizable=0;points=[];autosize=1;strokeColor=none;fillColor=none;" vertex="1" parent="1">
          <mxGeometry x="736" y="680" width="54" height="26" as="geometry" />
        </mxCell>
        <mxCell id="Cvu1rwZGdJvvCHTYWkSP-5" value="网线" style="text;html=1;align=center;verticalAlign=middle;resizable=0;points=[];autosize=1;strokeColor=none;fillColor=none;" vertex="1" parent="1">
          <mxGeometry x="741" y="719" width="42" height="26" as="geometry" />
        </mxCell>
        <mxCell id="Cvu1rwZGdJvvCHTYWkSP-6" value="报文组成" style="swimlane;fontStyle=0;childLayout=stackLayout;horizontal=1;startSize=26;fillColor=none;horizontalStack=0;resizeParent=1;resizeParentMax=0;resizeLast=0;collapsible=1;marginBottom=0;html=1;align=center;flipH=1;flipV=0;direction=east;rotation=0;" vertex="1" parent="1">
          <mxGeometry x="590" y="465" width="125" height="208" as="geometry">
            <mxRectangle x="-296" y="407" width="54" height="26" as="alternateBounds" />
          </mxGeometry>
        </mxCell>
        <mxCell id="Cvu1rwZGdJvvCHTYWkSP-7" value="报头和起始帧分界符" style="text;strokeColor=none;fillColor=none;align=left;verticalAlign=top;spacingLeft=4;spacingRight=4;overflow=hidden;rotatable=0;points=[[0,0.5],[1,0.5]];portConstraint=eastwest;whiteSpace=wrap;html=1;rotation=0;" vertex="1" parent="Cvu1rwZGdJvvCHTYWkSP-6">
          <mxGeometry y="26" width="125" height="26" as="geometry" />
        </mxCell>
        <mxCell id="Cvu1rwZGdJvvCHTYWkSP-8" value="MAC头" style="text;strokeColor=none;fillColor=none;align=left;verticalAlign=top;spacingLeft=4;spacingRight=4;overflow=hidden;rotatable=0;points=[[0,0.5],[1,0.5]];portConstraint=eastwest;whiteSpace=wrap;html=1;rotation=0;" vertex="1" parent="Cvu1rwZGdJvvCHTYWkSP-6">
          <mxGeometry y="52" width="125" height="26" as="geometry" />
        </mxCell>
        <mxCell id="Cvu1rwZGdJvvCHTYWkSP-9" value="IP头" style="text;strokeColor=none;fillColor=none;align=left;verticalAlign=top;spacingLeft=4;spacingRight=4;overflow=hidden;rotatable=0;points=[[0,0.5],[1,0.5]];portConstraint=eastwest;whiteSpace=wrap;html=1;rotation=0;" vertex="1" parent="Cvu1rwZGdJvvCHTYWkSP-6">
          <mxGeometry y="78" width="125" height="26" as="geometry" />
        </mxCell>
        <mxCell id="Cvu1rwZGdJvvCHTYWkSP-10" value="TCP头" style="text;strokeColor=none;fillColor=none;align=left;verticalAlign=top;spacingLeft=4;spacingRight=4;overflow=hidden;rotatable=0;points=[[0,0.5],[1,0.5]];portConstraint=eastwest;whiteSpace=wrap;html=1;rotation=0;" vertex="1" parent="Cvu1rwZGdJvvCHTYWkSP-6">
          <mxGeometry y="104" width="125" height="26" as="geometry" />
        </mxCell>
        <mxCell id="Cvu1rwZGdJvvCHTYWkSP-11" value="HTTP头" style="text;strokeColor=none;fillColor=none;align=left;verticalAlign=top;spacingLeft=4;spacingRight=4;overflow=hidden;rotatable=0;points=[[0,0.5],[1,0.5]];portConstraint=eastwest;whiteSpace=wrap;html=1;rotation=0;" vertex="1" parent="Cvu1rwZGdJvvCHTYWkSP-6">
          <mxGeometry y="130" width="125" height="26" as="geometry" />
        </mxCell>
        <mxCell id="Cvu1rwZGdJvvCHTYWkSP-12" value="数据包" style="text;strokeColor=none;fillColor=none;align=left;verticalAlign=top;spacingLeft=4;spacingRight=4;overflow=hidden;rotatable=0;points=[[0,0.5],[1,0.5]];portConstraint=eastwest;whiteSpace=wrap;html=1;rotation=0;" vertex="1" parent="Cvu1rwZGdJvvCHTYWkSP-6">
          <mxGeometry y="156" width="125" height="26" as="geometry" />
        </mxCell>
        <mxCell id="Cvu1rwZGdJvvCHTYWkSP-13" value="FCS" style="text;strokeColor=none;fillColor=none;align=left;verticalAlign=top;spacingLeft=4;spacingRight=4;overflow=hidden;rotatable=0;points=[[0,0.5],[1,0.5]];portConstraint=eastwest;whiteSpace=wrap;html=1;rotation=0;" vertex="1" parent="Cvu1rwZGdJvvCHTYWkSP-6">
          <mxGeometry y="182" width="125" height="26" as="geometry" />
        </mxCell>
        <mxCell id="Cvu1rwZGdJvvCHTYWkSP-15" value="MAC地址表/广播" style="text;html=1;align=center;verticalAlign=middle;resizable=0;points=[];autosize=1;strokeColor=none;fillColor=none;" vertex="1" parent="1">
          <mxGeometry x="941" y="685" width="108" height="26" as="geometry" />
        </mxCell>
        <mxCell id="Cvu1rwZGdJvvCHTYWkSP-16" value="路由器去掉&lt;div&gt;MAC头部&lt;/div&gt;" style="text;html=1;align=center;verticalAlign=middle;resizable=0;points=[];autosize=1;strokeColor=none;fillColor=none;" vertex="1" parent="1">
          <mxGeometry x="957" y="710" width="78" height="41" as="geometry" />
        </mxCell>
        <mxCell id="Cvu1rwZGdJvvCHTYWkSP-17" value="报文组成" style="swimlane;fontStyle=0;childLayout=stackLayout;horizontal=1;startSize=26;fillColor=none;horizontalStack=0;resizeParent=1;resizeParentMax=0;resizeLast=0;collapsible=1;marginBottom=0;html=1;align=center;flipH=1;flipV=0;direction=east;rotation=0;" vertex="1" parent="1">
          <mxGeometry x="823" y="466" width="125" height="208" as="geometry">
            <mxRectangle x="-296" y="407" width="54" height="26" as="alternateBounds" />
          </mxGeometry>
        </mxCell>
        <mxCell id="Cvu1rwZGdJvvCHTYWkSP-18" value="报头和起始帧分界符" style="text;strokeColor=none;fillColor=none;align=left;verticalAlign=top;spacingLeft=4;spacingRight=4;overflow=hidden;rotatable=0;points=[[0,0.5],[1,0.5]];portConstraint=eastwest;whiteSpace=wrap;html=1;rotation=0;" vertex="1" parent="Cvu1rwZGdJvvCHTYWkSP-17">
          <mxGeometry y="26" width="125" height="26" as="geometry" />
        </mxCell>
        <mxCell id="Cvu1rwZGdJvvCHTYWkSP-19" value="MAC头" style="text;strokeColor=none;fillColor=none;align=left;verticalAlign=top;spacingLeft=4;spacingRight=4;overflow=hidden;rotatable=0;points=[[0,0.5],[1,0.5]];portConstraint=eastwest;whiteSpace=wrap;html=1;rotation=0;" vertex="1" parent="Cvu1rwZGdJvvCHTYWkSP-17">
          <mxGeometry y="52" width="125" height="26" as="geometry" />
        </mxCell>
        <mxCell id="Cvu1rwZGdJvvCHTYWkSP-20" value="IP头" style="text;strokeColor=none;fillColor=none;align=left;verticalAlign=top;spacingLeft=4;spacingRight=4;overflow=hidden;rotatable=0;points=[[0,0.5],[1,0.5]];portConstraint=eastwest;whiteSpace=wrap;html=1;rotation=0;" vertex="1" parent="Cvu1rwZGdJvvCHTYWkSP-17">
          <mxGeometry y="78" width="125" height="26" as="geometry" />
        </mxCell>
        <mxCell id="Cvu1rwZGdJvvCHTYWkSP-21" value="TCP头" style="text;strokeColor=none;fillColor=none;align=left;verticalAlign=top;spacingLeft=4;spacingRight=4;overflow=hidden;rotatable=0;points=[[0,0.5],[1,0.5]];portConstraint=eastwest;whiteSpace=wrap;html=1;rotation=0;" vertex="1" parent="Cvu1rwZGdJvvCHTYWkSP-17">
          <mxGeometry y="104" width="125" height="26" as="geometry" />
        </mxCell>
        <mxCell id="Cvu1rwZGdJvvCHTYWkSP-22" value="HTTP头" style="text;strokeColor=none;fillColor=none;align=left;verticalAlign=top;spacingLeft=4;spacingRight=4;overflow=hidden;rotatable=0;points=[[0,0.5],[1,0.5]];portConstraint=eastwest;whiteSpace=wrap;html=1;rotation=0;" vertex="1" parent="Cvu1rwZGdJvvCHTYWkSP-17">
          <mxGeometry y="130" width="125" height="26" as="geometry" />
        </mxCell>
        <mxCell id="Cvu1rwZGdJvvCHTYWkSP-23" value="数据包" style="text;strokeColor=none;fillColor=none;align=left;verticalAlign=top;spacingLeft=4;spacingRight=4;overflow=hidden;rotatable=0;points=[[0,0.5],[1,0.5]];portConstraint=eastwest;whiteSpace=wrap;html=1;rotation=0;" vertex="1" parent="Cvu1rwZGdJvvCHTYWkSP-17">
          <mxGeometry y="156" width="125" height="26" as="geometry" />
        </mxCell>
        <mxCell id="Cvu1rwZGdJvvCHTYWkSP-24" value="FCS" style="text;strokeColor=none;fillColor=none;align=left;verticalAlign=top;spacingLeft=4;spacingRight=4;overflow=hidden;rotatable=0;points=[[0,0.5],[1,0.5]];portConstraint=eastwest;whiteSpace=wrap;html=1;rotation=0;" vertex="1" parent="Cvu1rwZGdJvvCHTYWkSP-17">
          <mxGeometry y="182" width="125" height="26" as="geometry" />
        </mxCell>
        <mxCell id="Cvu1rwZGdJvvCHTYWkSP-26" value="路由器重填&lt;div&gt;MAC头部&lt;/div&gt;" style="text;html=1;align=center;verticalAlign=middle;resizable=0;points=[];autosize=1;strokeColor=none;fillColor=none;" vertex="1" parent="1">
          <mxGeometry x="1177" y="712" width="78" height="41" as="geometry" />
        </mxCell>
        <mxCell id="Cvu1rwZGdJvvCHTYWkSP-27" value="报文组成" style="swimlane;fontStyle=0;childLayout=stackLayout;horizontal=1;startSize=26;fillColor=none;horizontalStack=0;resizeParent=1;resizeParentMax=0;resizeLast=0;collapsible=1;marginBottom=0;html=1;align=center;flipH=1;flipV=0;direction=east;rotation=0;" vertex="1" parent="1">
          <mxGeometry x="1053" y="492" width="125" height="182" as="geometry">
            <mxRectangle x="-296" y="407" width="54" height="26" as="alternateBounds" />
          </mxGeometry>
        </mxCell>
        <mxCell id="Cvu1rwZGdJvvCHTYWkSP-28" value="报头和起始帧分界符" style="text;strokeColor=none;fillColor=none;align=left;verticalAlign=top;spacingLeft=4;spacingRight=4;overflow=hidden;rotatable=0;points=[[0,0.5],[1,0.5]];portConstraint=eastwest;whiteSpace=wrap;html=1;rotation=0;" vertex="1" parent="Cvu1rwZGdJvvCHTYWkSP-27">
          <mxGeometry y="26" width="125" height="26" as="geometry" />
        </mxCell>
        <mxCell id="Cvu1rwZGdJvvCHTYWkSP-30" value="IP头" style="text;strokeColor=none;fillColor=none;align=left;verticalAlign=top;spacingLeft=4;spacingRight=4;overflow=hidden;rotatable=0;points=[[0,0.5],[1,0.5]];portConstraint=eastwest;whiteSpace=wrap;html=1;rotation=0;" vertex="1" parent="Cvu1rwZGdJvvCHTYWkSP-27">
          <mxGeometry y="52" width="125" height="26" as="geometry" />
        </mxCell>
        <mxCell id="Cvu1rwZGdJvvCHTYWkSP-31" value="TCP头" style="text;strokeColor=none;fillColor=none;align=left;verticalAlign=top;spacingLeft=4;spacingRight=4;overflow=hidden;rotatable=0;points=[[0,0.5],[1,0.5]];portConstraint=eastwest;whiteSpace=wrap;html=1;rotation=0;" vertex="1" parent="Cvu1rwZGdJvvCHTYWkSP-27">
          <mxGeometry y="78" width="125" height="26" as="geometry" />
        </mxCell>
        <mxCell id="Cvu1rwZGdJvvCHTYWkSP-32" value="HTTP头" style="text;strokeColor=none;fillColor=none;align=left;verticalAlign=top;spacingLeft=4;spacingRight=4;overflow=hidden;rotatable=0;points=[[0,0.5],[1,0.5]];portConstraint=eastwest;whiteSpace=wrap;html=1;rotation=0;" vertex="1" parent="Cvu1rwZGdJvvCHTYWkSP-27">
          <mxGeometry y="104" width="125" height="26" as="geometry" />
        </mxCell>
        <mxCell id="Cvu1rwZGdJvvCHTYWkSP-33" value="数据包" style="text;strokeColor=none;fillColor=none;align=left;verticalAlign=top;spacingLeft=4;spacingRight=4;overflow=hidden;rotatable=0;points=[[0,0.5],[1,0.5]];portConstraint=eastwest;whiteSpace=wrap;html=1;rotation=0;" vertex="1" parent="Cvu1rwZGdJvvCHTYWkSP-27">
          <mxGeometry y="130" width="125" height="26" as="geometry" />
        </mxCell>
        <mxCell id="Cvu1rwZGdJvvCHTYWkSP-34" value="FCS" style="text;strokeColor=none;fillColor=none;align=left;verticalAlign=top;spacingLeft=4;spacingRight=4;overflow=hidden;rotatable=0;points=[[0,0.5],[1,0.5]];portConstraint=eastwest;whiteSpace=wrap;html=1;rotation=0;" vertex="1" parent="Cvu1rwZGdJvvCHTYWkSP-27">
          <mxGeometry y="156" width="125" height="26" as="geometry" />
        </mxCell>
        <mxCell id="Cvu1rwZGdJvvCHTYWkSP-42" value="报文组成" style="swimlane;fontStyle=0;childLayout=stackLayout;horizontal=1;startSize=26;fillColor=none;horizontalStack=0;resizeParent=1;resizeParentMax=0;resizeLast=0;collapsible=1;marginBottom=0;html=1;align=center;flipH=1;flipV=0;direction=east;rotation=0;" vertex="1" parent="1">
          <mxGeometry x="1266" y="465" width="125" height="208" as="geometry">
            <mxRectangle x="-296" y="407" width="54" height="26" as="alternateBounds" />
          </mxGeometry>
        </mxCell>
        <mxCell id="Cvu1rwZGdJvvCHTYWkSP-43" value="报头和起始帧分界符" style="text;strokeColor=none;fillColor=none;align=left;verticalAlign=top;spacingLeft=4;spacingRight=4;overflow=hidden;rotatable=0;points=[[0,0.5],[1,0.5]];portConstraint=eastwest;whiteSpace=wrap;html=1;rotation=0;" vertex="1" parent="Cvu1rwZGdJvvCHTYWkSP-42">
          <mxGeometry y="26" width="125" height="26" as="geometry" />
        </mxCell>
        <mxCell id="Cvu1rwZGdJvvCHTYWkSP-44" value="MAC头" style="text;strokeColor=none;fillColor=none;align=left;verticalAlign=top;spacingLeft=4;spacingRight=4;overflow=hidden;rotatable=0;points=[[0,0.5],[1,0.5]];portConstraint=eastwest;whiteSpace=wrap;html=1;rotation=0;" vertex="1" parent="Cvu1rwZGdJvvCHTYWkSP-42">
          <mxGeometry y="52" width="125" height="26" as="geometry" />
        </mxCell>
        <mxCell id="Cvu1rwZGdJvvCHTYWkSP-45" value="IP头" style="text;strokeColor=none;fillColor=none;align=left;verticalAlign=top;spacingLeft=4;spacingRight=4;overflow=hidden;rotatable=0;points=[[0,0.5],[1,0.5]];portConstraint=eastwest;whiteSpace=wrap;html=1;rotation=0;" vertex="1" parent="Cvu1rwZGdJvvCHTYWkSP-42">
          <mxGeometry y="78" width="125" height="26" as="geometry" />
        </mxCell>
        <mxCell id="Cvu1rwZGdJvvCHTYWkSP-46" value="TCP头" style="text;strokeColor=none;fillColor=none;align=left;verticalAlign=top;spacingLeft=4;spacingRight=4;overflow=hidden;rotatable=0;points=[[0,0.5],[1,0.5]];portConstraint=eastwest;whiteSpace=wrap;html=1;rotation=0;" vertex="1" parent="Cvu1rwZGdJvvCHTYWkSP-42">
          <mxGeometry y="104" width="125" height="26" as="geometry" />
        </mxCell>
        <mxCell id="Cvu1rwZGdJvvCHTYWkSP-47" value="HTTP头" style="text;strokeColor=none;fillColor=none;align=left;verticalAlign=top;spacingLeft=4;spacingRight=4;overflow=hidden;rotatable=0;points=[[0,0.5],[1,0.5]];portConstraint=eastwest;whiteSpace=wrap;html=1;rotation=0;" vertex="1" parent="Cvu1rwZGdJvvCHTYWkSP-42">
          <mxGeometry y="130" width="125" height="26" as="geometry" />
        </mxCell>
        <mxCell id="Cvu1rwZGdJvvCHTYWkSP-48" value="数据包" style="text;strokeColor=none;fillColor=none;align=left;verticalAlign=top;spacingLeft=4;spacingRight=4;overflow=hidden;rotatable=0;points=[[0,0.5],[1,0.5]];portConstraint=eastwest;whiteSpace=wrap;html=1;rotation=0;" vertex="1" parent="Cvu1rwZGdJvvCHTYWkSP-42">
          <mxGeometry y="156" width="125" height="26" as="geometry" />
        </mxCell>
        <mxCell id="Cvu1rwZGdJvvCHTYWkSP-49" value="FCS" style="text;strokeColor=none;fillColor=none;align=left;verticalAlign=top;spacingLeft=4;spacingRight=4;overflow=hidden;rotatable=0;points=[[0,0.5],[1,0.5]];portConstraint=eastwest;whiteSpace=wrap;html=1;rotation=0;" vertex="1" parent="Cvu1rwZGdJvvCHTYWkSP-42">
          <mxGeometry y="182" width="125" height="26" as="geometry" />
        </mxCell>
        <mxCell id="Cvu1rwZGdJvvCHTYWkSP-58" value="报文组成" style="swimlane;fontStyle=0;childLayout=stackLayout;horizontal=1;startSize=26;fillColor=none;horizontalStack=0;resizeParent=1;resizeParentMax=0;resizeLast=0;collapsible=1;marginBottom=0;html=1;align=center;flipH=1;flipV=0;direction=east;rotation=0;" vertex="1" parent="1">
          <mxGeometry x="1444" y="492" width="125" height="182" as="geometry">
            <mxRectangle x="-296" y="407" width="54" height="26" as="alternateBounds" />
          </mxGeometry>
        </mxCell>
        <mxCell id="Cvu1rwZGdJvvCHTYWkSP-59" value="报头和起始帧分界符" style="text;strokeColor=none;fillColor=none;align=left;verticalAlign=top;spacingLeft=4;spacingRight=4;overflow=hidden;rotatable=0;points=[[0,0.5],[1,0.5]];portConstraint=eastwest;whiteSpace=wrap;html=1;rotation=0;" vertex="1" parent="Cvu1rwZGdJvvCHTYWkSP-58">
          <mxGeometry y="26" width="125" height="26" as="geometry" />
        </mxCell>
        <mxCell id="Cvu1rwZGdJvvCHTYWkSP-60" value="IP头" style="text;strokeColor=none;fillColor=none;align=left;verticalAlign=top;spacingLeft=4;spacingRight=4;overflow=hidden;rotatable=0;points=[[0,0.5],[1,0.5]];portConstraint=eastwest;whiteSpace=wrap;html=1;rotation=0;" vertex="1" parent="Cvu1rwZGdJvvCHTYWkSP-58">
          <mxGeometry y="52" width="125" height="26" as="geometry" />
        </mxCell>
        <mxCell id="Cvu1rwZGdJvvCHTYWkSP-61" value="TCP头" style="text;strokeColor=none;fillColor=none;align=left;verticalAlign=top;spacingLeft=4;spacingRight=4;overflow=hidden;rotatable=0;points=[[0,0.5],[1,0.5]];portConstraint=eastwest;whiteSpace=wrap;html=1;rotation=0;" vertex="1" parent="Cvu1rwZGdJvvCHTYWkSP-58">
          <mxGeometry y="78" width="125" height="26" as="geometry" />
        </mxCell>
        <mxCell id="Cvu1rwZGdJvvCHTYWkSP-62" value="HTTP头" style="text;strokeColor=none;fillColor=none;align=left;verticalAlign=top;spacingLeft=4;spacingRight=4;overflow=hidden;rotatable=0;points=[[0,0.5],[1,0.5]];portConstraint=eastwest;whiteSpace=wrap;html=1;rotation=0;" vertex="1" parent="Cvu1rwZGdJvvCHTYWkSP-58">
          <mxGeometry y="104" width="125" height="26" as="geometry" />
        </mxCell>
        <mxCell id="Cvu1rwZGdJvvCHTYWkSP-63" value="数据包" style="text;strokeColor=none;fillColor=none;align=left;verticalAlign=top;spacingLeft=4;spacingRight=4;overflow=hidden;rotatable=0;points=[[0,0.5],[1,0.5]];portConstraint=eastwest;whiteSpace=wrap;html=1;rotation=0;" vertex="1" parent="Cvu1rwZGdJvvCHTYWkSP-58">
          <mxGeometry y="130" width="125" height="26" as="geometry" />
        </mxCell>
        <mxCell id="Cvu1rwZGdJvvCHTYWkSP-64" value="FCS" style="text;strokeColor=none;fillColor=none;align=left;verticalAlign=top;spacingLeft=4;spacingRight=4;overflow=hidden;rotatable=0;points=[[0,0.5],[1,0.5]];portConstraint=eastwest;whiteSpace=wrap;html=1;rotation=0;" vertex="1" parent="Cvu1rwZGdJvvCHTYWkSP-58">
          <mxGeometry y="156" width="125" height="26" as="geometry" />
        </mxCell>
        <mxCell id="Cvu1rwZGdJvvCHTYWkSP-65" value="报文组成" style="swimlane;fontStyle=0;childLayout=stackLayout;horizontal=1;startSize=26;fillColor=none;horizontalStack=0;resizeParent=1;resizeParentMax=0;resizeLast=0;collapsible=1;marginBottom=0;html=1;align=center;flipH=1;flipV=0;direction=east;rotation=0;" vertex="1" parent="1">
          <mxGeometry x="1626" y="468" width="125" height="208" as="geometry">
            <mxRectangle x="-296" y="407" width="54" height="26" as="alternateBounds" />
          </mxGeometry>
        </mxCell>
        <mxCell id="Cvu1rwZGdJvvCHTYWkSP-66" value="报头和起始帧分界符" style="text;strokeColor=none;fillColor=none;align=left;verticalAlign=top;spacingLeft=4;spacingRight=4;overflow=hidden;rotatable=0;points=[[0,0.5],[1,0.5]];portConstraint=eastwest;whiteSpace=wrap;html=1;rotation=0;" vertex="1" parent="Cvu1rwZGdJvvCHTYWkSP-65">
          <mxGeometry y="26" width="125" height="26" as="geometry" />
        </mxCell>
        <mxCell id="Cvu1rwZGdJvvCHTYWkSP-67" value="MAC头" style="text;strokeColor=none;fillColor=none;align=left;verticalAlign=top;spacingLeft=4;spacingRight=4;overflow=hidden;rotatable=0;points=[[0,0.5],[1,0.5]];portConstraint=eastwest;whiteSpace=wrap;html=1;rotation=0;" vertex="1" parent="Cvu1rwZGdJvvCHTYWkSP-65">
          <mxGeometry y="52" width="125" height="26" as="geometry" />
        </mxCell>
        <mxCell id="Cvu1rwZGdJvvCHTYWkSP-68" value="IP头" style="text;strokeColor=none;fillColor=none;align=left;verticalAlign=top;spacingLeft=4;spacingRight=4;overflow=hidden;rotatable=0;points=[[0,0.5],[1,0.5]];portConstraint=eastwest;whiteSpace=wrap;html=1;rotation=0;" vertex="1" parent="Cvu1rwZGdJvvCHTYWkSP-65">
          <mxGeometry y="78" width="125" height="26" as="geometry" />
        </mxCell>
        <mxCell id="Cvu1rwZGdJvvCHTYWkSP-69" value="TCP头" style="text;strokeColor=none;fillColor=none;align=left;verticalAlign=top;spacingLeft=4;spacingRight=4;overflow=hidden;rotatable=0;points=[[0,0.5],[1,0.5]];portConstraint=eastwest;whiteSpace=wrap;html=1;rotation=0;" vertex="1" parent="Cvu1rwZGdJvvCHTYWkSP-65">
          <mxGeometry y="104" width="125" height="26" as="geometry" />
        </mxCell>
        <mxCell id="Cvu1rwZGdJvvCHTYWkSP-70" value="HTTP头" style="text;strokeColor=none;fillColor=none;align=left;verticalAlign=top;spacingLeft=4;spacingRight=4;overflow=hidden;rotatable=0;points=[[0,0.5],[1,0.5]];portConstraint=eastwest;whiteSpace=wrap;html=1;rotation=0;" vertex="1" parent="Cvu1rwZGdJvvCHTYWkSP-65">
          <mxGeometry y="130" width="125" height="26" as="geometry" />
        </mxCell>
        <mxCell id="Cvu1rwZGdJvvCHTYWkSP-71" value="数据包" style="text;strokeColor=none;fillColor=none;align=left;verticalAlign=top;spacingLeft=4;spacingRight=4;overflow=hidden;rotatable=0;points=[[0,0.5],[1,0.5]];portConstraint=eastwest;whiteSpace=wrap;html=1;rotation=0;" vertex="1" parent="Cvu1rwZGdJvvCHTYWkSP-65">
          <mxGeometry y="156" width="125" height="26" as="geometry" />
        </mxCell>
        <mxCell id="Cvu1rwZGdJvvCHTYWkSP-72" value="FCS" style="text;strokeColor=none;fillColor=none;align=left;verticalAlign=top;spacingLeft=4;spacingRight=4;overflow=hidden;rotatable=0;points=[[0,0.5],[1,0.5]];portConstraint=eastwest;whiteSpace=wrap;html=1;rotation=0;" vertex="1" parent="Cvu1rwZGdJvvCHTYWkSP-65">
          <mxGeometry y="182" width="125" height="26" as="geometry" />
        </mxCell>
        <mxCell id="Cvu1rwZGdJvvCHTYWkSP-73" value="报文组成" style="swimlane;fontStyle=0;childLayout=stackLayout;horizontal=1;startSize=26;fillColor=none;horizontalStack=0;resizeParent=1;resizeParentMax=0;resizeLast=0;collapsible=1;marginBottom=0;html=1;align=center;flipH=1;flipV=0;direction=east;rotation=0;" vertex="1" parent="1">
          <mxGeometry x="1823" y="467" width="125" height="208" as="geometry">
            <mxRectangle x="-296" y="407" width="54" height="26" as="alternateBounds" />
          </mxGeometry>
        </mxCell>
        <mxCell id="Cvu1rwZGdJvvCHTYWkSP-74" value="报头和起始帧分界符" style="text;strokeColor=none;fillColor=none;align=left;verticalAlign=top;spacingLeft=4;spacingRight=4;overflow=hidden;rotatable=0;points=[[0,0.5],[1,0.5]];portConstraint=eastwest;whiteSpace=wrap;html=1;rotation=0;" vertex="1" parent="Cvu1rwZGdJvvCHTYWkSP-73">
          <mxGeometry y="26" width="125" height="26" as="geometry" />
        </mxCell>
        <mxCell id="Cvu1rwZGdJvvCHTYWkSP-75" value="MAC头" style="text;strokeColor=none;fillColor=none;align=left;verticalAlign=top;spacingLeft=4;spacingRight=4;overflow=hidden;rotatable=0;points=[[0,0.5],[1,0.5]];portConstraint=eastwest;whiteSpace=wrap;html=1;rotation=0;" vertex="1" parent="Cvu1rwZGdJvvCHTYWkSP-73">
          <mxGeometry y="52" width="125" height="26" as="geometry" />
        </mxCell>
        <mxCell id="Cvu1rwZGdJvvCHTYWkSP-76" value="IP头" style="text;strokeColor=none;fillColor=none;align=left;verticalAlign=top;spacingLeft=4;spacingRight=4;overflow=hidden;rotatable=0;points=[[0,0.5],[1,0.5]];portConstraint=eastwest;whiteSpace=wrap;html=1;rotation=0;" vertex="1" parent="Cvu1rwZGdJvvCHTYWkSP-73">
          <mxGeometry y="78" width="125" height="26" as="geometry" />
        </mxCell>
        <mxCell id="Cvu1rwZGdJvvCHTYWkSP-77" value="TCP头" style="text;strokeColor=none;fillColor=none;align=left;verticalAlign=top;spacingLeft=4;spacingRight=4;overflow=hidden;rotatable=0;points=[[0,0.5],[1,0.5]];portConstraint=eastwest;whiteSpace=wrap;html=1;rotation=0;" vertex="1" parent="Cvu1rwZGdJvvCHTYWkSP-73">
          <mxGeometry y="104" width="125" height="26" as="geometry" />
        </mxCell>
        <mxCell id="Cvu1rwZGdJvvCHTYWkSP-78" value="HTTP头" style="text;strokeColor=none;fillColor=none;align=left;verticalAlign=top;spacingLeft=4;spacingRight=4;overflow=hidden;rotatable=0;points=[[0,0.5],[1,0.5]];portConstraint=eastwest;whiteSpace=wrap;html=1;rotation=0;" vertex="1" parent="Cvu1rwZGdJvvCHTYWkSP-73">
          <mxGeometry y="130" width="125" height="26" as="geometry" />
        </mxCell>
        <mxCell id="Cvu1rwZGdJvvCHTYWkSP-79" value="数据包" style="text;strokeColor=none;fillColor=none;align=left;verticalAlign=top;spacingLeft=4;spacingRight=4;overflow=hidden;rotatable=0;points=[[0,0.5],[1,0.5]];portConstraint=eastwest;whiteSpace=wrap;html=1;rotation=0;" vertex="1" parent="Cvu1rwZGdJvvCHTYWkSP-73">
          <mxGeometry y="156" width="125" height="26" as="geometry" />
        </mxCell>
        <mxCell id="Cvu1rwZGdJvvCHTYWkSP-80" value="FCS" style="text;strokeColor=none;fillColor=none;align=left;verticalAlign=top;spacingLeft=4;spacingRight=4;overflow=hidden;rotatable=0;points=[[0,0.5],[1,0.5]];portConstraint=eastwest;whiteSpace=wrap;html=1;rotation=0;" vertex="1" parent="Cvu1rwZGdJvvCHTYWkSP-73">
          <mxGeometry y="182" width="125" height="26" as="geometry" />
        </mxCell>
      </root>
    </mxGraphModel>
  </diagram>
</mxfile>
